<svg xmlns="http://www.w3.org/2000/svg" viewBox="0 0 208.988 65.091"><defs><style>.cls-1{fill:#77bf4b;}.cls-2{fill:#58595b;}.cls-3{fill:#808184;}</style></defs><title>Oden_Web_v3</title><g id="Layer_1" data-name="Layer 1"><path class="cls-1" d="M88.466,17.984a14.4,14.4,0,0,1,14.509,14.55,14.514,14.514,0,1,1-29.018,0A14.4,14.4,0,0,1,88.466,17.984Zm0,26.87c6.4,0,11.592-5.349,11.592-12.32a11.6,11.6,0,1,0-23.183,0C76.875,39.505,82.022,44.854,88.466,44.854Z"/><path class="cls-1" d="M117.4,18.47h9.2c8.552,0,14.307,5.229,14.307,14.226,0,9.079-5.755,14.266-14.307,14.266h-9.2Zm8.917,25.979c7.011,0,11.672-4.133,11.672-11.753,0-7.579-4.7-11.713-11.672-11.713H120.2V44.449Z"/><path class="cls-1" d="M155.492,18.47h16.05v2.513H158.288V31.359H169.11v2.513H158.288V44.449h13.983v2.513H155.492Z"/><path class="cls-1" d="M186.737,18.47h2.716L204,38.978c.972,1.419,2.35,3.85,2.35,3.85h.081s-.243-2.35-.243-3.85V18.47h2.8V46.962h-2.716L191.723,26.454c-.973-1.418-2.351-3.85-2.351-3.85h-.081s.243,2.351.243,3.85V46.962h-2.8Z"/><path class="cls-2" d="M50.078,47.45h-.062L25.668,47.3a1.546,1.546,0,0,1-1.536-1.555,1.565,1.565,0,0,1,1.556-1.536l24.347.151h.043a6.759,6.759,0,0,0,6.751-6.71l.061-9.734a6.76,6.76,0,0,0-6.71-6.793l-9.388-.012a1.546,1.546,0,0,1,0-3.091h0l9.4.012a9.843,9.843,0,0,1,9.79,9.9l-.06,9.735A9.856,9.856,0,0,1,50.078,47.45Z"/><polygon class="cls-2" points="27.06 41.137 19.023 45.711 27.002 50.385 27.06 41.137"/><path class="cls-3" d="M18.224,65.091a9.79,9.79,0,0,1-4.958-1.353l-8.4-4.919A9.857,9.857,0,0,1,1.347,45.35L13.652,24.34A1.546,1.546,0,0,1,16.32,25.9l-12.3,21.01A6.76,6.76,0,0,0,6.429,56.15l8.4,4.919a6.751,6.751,0,0,0,9.238-2.413l4.448-7.594a1.546,1.546,0,0,1,2.669,1.562l-4.448,7.594a9.778,9.778,0,0,1-6.006,4.549A9.887,9.887,0,0,1,18.224,65.091Z"/><polygon class="cls-3" points="18.293 28.625 18.349 19.378 10.312 23.951 18.293 28.625"/><path class="cls-1" d="M37.779,28.445a1.544,1.544,0,0,1-1.345-.782L24.39,6.5a6.76,6.76,0,0,0-9.207-2.529L6.723,8.788A6.761,6.761,0,0,0,4.194,18l4.2,7.376A1.546,1.546,0,0,1,5.705,26.9l-4.2-7.376A9.852,9.852,0,0,1,5.194,6.1l8.46-4.815A9.853,9.853,0,0,1,27.077,4.973L39.12,26.134a1.546,1.546,0,0,1-1.341,2.311Z"/><polygon class="cls-1" points="41.127 23.436 41.069 32.683 33.089 28.01 41.127 23.436"/></g></svg>