<?xml version="1.0" standalone="no"?>
<!DOCTYPE svg PUBLIC "-//W3C//DTD SVG 20010904//EN"
 "http://www.w3.org/TR/2001/REC-SVG-20010904/DTD/svg10.dtd">
<svg version="1.0" xmlns="http://www.w3.org/2000/svg"
 width="1594.000000pt" height="796.000000pt" viewBox="0 0 1594.000000 796.000000"
 preserveAspectRatio="xMidYMid meet">

<g transform="translate(0.000000,796.000000) scale(0.100000,-0.100000)"
fill="#000000" stroke="none">
<path d="M6830 7546 c0 -10 13 -16 38 -18 l37 -3 3 -127 3 -128 -41 0 c-33 0
-40 -3 -40 -20 0 -19 7 -20 101 -20 90 0 100 2 97 18 -2 12 -14 18 -41 20
l-37 3 0 145 0 144 -60 0 c-46 0 -60 -3 -60 -14z"/>
<path d="M7694 7539 c-3 -6 0 -18 9 -26 18 -18 37 -9 37 18 0 21 -34 27 -46 8z"/>
<path d="M6056 7445 c-14 -13 -26 -29 -26 -35 0 -16 47 -12 54 5 8 23 73 20
86 -4 15 -29 15 -29 -46 -37 -68 -8 -94 -30 -94 -78 0 -25 7 -39 22 -50 26
-18 80 -21 109 -6 13 7 19 7 19 0 0 -5 12 -10 26 -10 20 0 25 4 20 16 -3 9 -6
51 -6 95 0 71 -3 83 -25 104 -34 35 -101 35 -139 0z m124 -123 c0 -47 -80 -69
-104 -29 -15 25 16 47 66 47 30 0 38 -4 38 -18z"/>
<path d="M6290 7350 l0 -120 25 0 c24 0 24 2 27 92 3 91 3 93 31 102 51 18 62
1 65 -103 3 -90 3 -91 28 -91 l26 0 -4 101 c-3 92 -5 103 -27 120 -26 21 -72
25 -104 8 -16 -9 -22 -9 -25 0 -2 6 -12 11 -23 11 -18 0 -19 -8 -19 -120z"/>
<path d="M6586 7449 c-14 -11 -26 -27 -26 -35 0 -19 34 -18 50 1 15 18 61 20
78 3 23 -23 12 -36 -38 -43 -63 -9 -91 -30 -92 -73 -1 -45 26 -72 74 -72 22 0
48 5 59 10 13 7 19 7 19 0 0 -5 10 -10 23 -10 22 0 22 1 17 101 -5 91 -8 103
-29 120 -32 26 -100 25 -135 -2z m114 -133 c0 -32 -22 -48 -62 -44 -66 6 -40
68 29 68 28 0 33 -4 33 -24z"/>
<path d="M7070 7458 c0 -7 21 -59 46 -115 46 -100 46 -103 30 -128 -9 -14 -28
-30 -42 -35 -13 -5 -24 -16 -24 -25 0 -24 53 -19 78 8 17 18 142 285 142 303
0 2 -11 4 -24 4 -20 0 -28 -12 -57 -87 l-33 -86 -21 45 c-12 25 -28 64 -37 87
-12 30 -22 41 -37 41 -12 0 -21 -6 -21 -12z"/>
<path d="M7386 7449 c-17 -14 -26 -30 -26 -49 0 -34 24 -53 88 -70 50 -13 64
-36 36 -57 -24 -17 -64 -9 -83 17 -16 24 -51 27 -51 5 0 -9 11 -27 25 -40 19
-20 34 -25 75 -25 41 0 56 5 75 25 47 46 24 86 -62 111 -59 17 -70 28 -53 49
18 22 60 18 86 -6 31 -29 58 -19 43 15 -22 48 -106 62 -153 25z"/>
<path d="M7620 7450 c0 -17 7 -20 40 -20 l40 0 0 -80 0 -80 -40 0 c-33 0 -40
-3 -40 -20 0 -19 7 -20 100 -20 93 0 100 1 100 20 0 17 -7 20 -40 20 l-40 0 0
100 0 100 -60 0 c-53 0 -60 -2 -60 -20z"/>
<path d="M7916 7449 c-17 -14 -26 -30 -26 -49 0 -34 24 -53 88 -70 65 -17 70
-51 10 -65 -21 -6 -32 -1 -51 19 -29 31 -57 34 -57 7 0 -33 47 -61 100 -61 58
0 93 24 93 63 0 39 -18 55 -79 73 -60 17 -71 28 -54 49 18 22 67 19 82 -5 16
-26 48 -26 48 -1 0 29 -47 61 -90 61 -23 0 -48 -8 -64 -21z"/>
<path d="M3343 7114 c-7 -3 -17 -21 -23 -40 -8 -23 -18 -34 -31 -34 -10 0 -19
-4 -19 -10 0 -5 9 -10 20 -10 18 0 20 -7 20 -75 0 -68 2 -75 20 -75 18 0 20 7
20 75 l0 75 30 0 c17 0 30 5 30 10 0 6 -14 10 -31 10 -26 0 -30 3 -27 23 2 17
11 23 36 25 20 2 32 9 32 18 0 14 -49 19 -77 8z"/>
<path d="M3660 7101 c0 -5 12 -11 28 -13 l27 -3 3 -92 3 -93 -31 0 c-20 0 -30
-5 -30 -15 0 -12 14 -15 70 -15 56 0 70 3 70 15 0 9 -9 15 -25 15 l-25 0 0
105 0 105 -45 0 c-25 0 -45 -4 -45 -9z"/>
<path d="M3120 7060 c0 -13 -7 -20 -20 -20 -11 0 -20 -4 -20 -10 0 -5 9 -10
20 -10 18 0 20 -7 20 -56 0 -76 11 -94 60 -94 51 0 57 27 8 32 -33 3 -33 4
-36 61 l-3 57 36 0 c19 0 35 5 35 10 0 6 -16 10 -35 10 -28 0 -35 4 -35 20 0
11 -7 20 -15 20 -8 0 -15 -9 -15 -20z"/>
<path d="M2588 7036 c-16 -8 -28 -11 -28 -5 0 5 -7 9 -15 9 -12 0 -15 -16 -15
-85 0 -69 3 -85 15 -85 12 0 15 13 15 58 0 64 11 82 51 82 30 0 46 25 23 34
-19 7 -14 8 -46 -8z"/>
<path d="M2743 7039 c-30 -11 -53 -49 -53 -87 0 -63 72 -103 131 -72 29 16 24
33 -8 25 -41 -11 -66 -8 -80 11 -19 26 -7 34 53 34 50 0 54 2 54 23 0 50 -50
84 -97 66z m51 -35 c25 -25 19 -34 -24 -34 -41 0 -52 14 -28 38 16 16 33 15
52 -4z"/>
<path d="M2941 7041 c-13 -4 -30 -16 -37 -27 -19 -28 5 -61 51 -70 43 -8 54
-23 30 -41 -25 -17 -31 -17 -55 7 -23 23 -40 26 -40 7 0 -23 35 -47 69 -47 97
0 96 81 -2 104 -20 5 -27 12 -25 24 4 22 41 27 58 7 13 -15 40 -21 40 -7 -1
28 -51 52 -89 43z"/>
<path d="M3462 6970 c7 -89 16 -100 84 -99 l54 2 0 83 c0 67 -3 84 -15 84 -11
0 -15 -16 -17 -67 l-3 -68 -30 0 -30 0 -3 68 c-3 60 -5 67 -24 67 -19 0 -20
-4 -16 -70z"/>
<path d="M9290 6751 l0 -261 35 0 35 0 0 134 c0 133 0 135 26 155 17 13 41 21
65 21 62 0 73 -27 78 -182 l3 -128 29 0 29 0 0 143 c0 124 -3 146 -20 175 -33
54 -116 70 -177 32 l-32 -19 -3 92 -3 92 -32 3 -33 3 0 -260z"/>
<path d="M8790 6965 c0 -34 -1 -35 -40 -35 -33 0 -40 -3 -40 -20 0 -17 7 -20
40 -20 l40 0 0 -104 c0 -96 2 -105 25 -130 23 -25 31 -27 87 -24 55 3 63 5 63
23 0 16 -7 20 -35 21 -19 0 -43 1 -52 2 -24 3 -40 64 -36 142 l3 65 58 3 c48
3 57 6 57 22 0 16 -9 19 -57 22 -57 3 -58 3 -61 36 -3 26 -7 32 -28 32 -21 0
-24 -5 -24 -35z"/>
<path d="M5755 6931 c-11 -5 -35 -6 -52 -3 l-33 5 0 -152 0 -151 30 0 30 0 0
124 c0 129 6 145 45 130 12 -5 15 -29 15 -130 l0 -124 25 0 25 0 0 113 c0 125
12 162 47 141 15 -10 18 -28 21 -133 l3 -121 24 0 25 0 0 131 c0 72 -4 139
-10 149 -13 25 -56 33 -89 17 -24 -12 -31 -12 -46 0 -21 15 -31 15 -60 4z"/>
<path d="M6111 6930 c-38 -9 -68 -36 -73 -65 -5 -30 29 -31 57 -1 24 26 67 34
91 18 17 -11 36 -51 29 -62 -3 -6 -32 -10 -63 -10 -87 0 -122 -28 -122 -97 0
-33 5 -46 26 -62 30 -24 101 -28 137 -10 16 9 22 9 25 0 2 -6 16 -11 31 -11
l27 0 -4 123 c-4 106 -7 125 -25 145 -17 18 -79 44 -97 41 -3 -1 -20 -5 -39
-9z m109 -185 c0 -36 -37 -65 -82 -65 -32 0 -41 5 -50 26 -11 23 -10 29 11 45
16 13 39 19 72 19 45 0 49 -2 49 -25z"/>
<path d="M6458 6922 c-30 -16 -38 -17 -38 -6 0 8 -10 14 -25 14 l-25 0 0 -150
0 -150 25 0 25 0 0 104 c0 117 11 141 66 152 24 5 37 1 53 -15 19 -19 21 -33
21 -131 l0 -110 30 0 30 0 0 98 c0 53 -5 114 -11 135 -18 65 -87 92 -151 59z"/>
<path d="M6790 6933 c-33 -5 -78 -42 -82 -68 -5 -32 38 -32 63 -1 25 32 70 35
100 5 37 -37 22 -53 -55 -60 -59 -5 -73 -10 -93 -33 -31 -37 -31 -89 2 -121
19 -19 35 -25 70 -25 26 0 56 5 67 11 14 8 23 8 31 0 6 -6 21 -11 33 -11 22 0
22 1 17 123 -6 125 -17 161 -51 171 -33 9 -78 13 -102 9z m100 -193 c0 -38
-35 -62 -86 -58 -28 2 -39 9 -45 26 -14 36 20 62 81 62 49 0 50 -1 50 -30z"/>
<path d="M7102 6925 c-83 -36 -96 -204 -21 -274 25 -23 95 -29 130 -11 29 16
25 -25 -6 -55 -29 -30 -59 -32 -102 -6 -26 16 -34 17 -42 7 -40 -48 95 -93
165 -56 52 28 58 52 62 233 l4 167 -31 0 c-17 0 -31 -4 -31 -9 0 -6 -16 -3
-35 5 -42 17 -51 17 -93 -1z m91 -46 c33 -18 37 -28 37 -100 0 -70 -11 -89
-58 -104 -17 -5 -29 1 -52 24 -25 24 -30 38 -30 76 0 88 46 134 103 104z"/>
<path d="M7445 6921 c-54 -28 -77 -69 -78 -140 -1 -101 48 -151 146 -151 45 0
61 5 87 26 24 21 28 29 19 40 -16 19 -25 18 -60 -8 -28 -21 -32 -21 -71 -8
-31 11 -45 23 -55 48 l-13 32 105 0 105 0 0 35 c0 110 -92 173 -185 126z m99
-52 c14 -11 26 -29 26 -40 0 -17 -8 -19 -70 -19 -62 0 -70 2 -70 19 0 22 44
61 70 61 10 0 29 -9 44 -21z"/>
<path d="M7762 6924 c-12 -8 -22 -10 -22 -5 0 6 -11 11 -25 11 l-25 0 0 -150
0 -150 25 0 24 0 3 121 c3 105 6 123 21 133 35 21 47 -16 47 -141 l0 -113 25
0 24 0 3 121 c3 103 6 124 20 133 33 21 43 -7 46 -134 4 -119 4 -120 28 -120
l24 0 0 128 c0 96 -4 133 -15 149 -20 28 -62 38 -89 20 -19 -13 -25 -13 -41
-1 -24 18 -45 18 -73 -2z"/>
<path d="M8120 6923 c-52 -27 -80 -75 -80 -140 0 -100 48 -153 137 -153 79 0
143 41 108 70 -11 9 -22 7 -50 -10 -25 -16 -43 -20 -63 -15 -35 8 -72 43 -72
67 0 16 10 18 100 18 l100 0 0 43 c0 23 -6 53 -13 66 -30 59 -108 84 -167 54z
m91 -46 c15 -11 39 -49 39 -61 0 -3 -34 -6 -75 -6 -84 0 -95 11 -50 55 26 27
61 32 86 12z"/>
<path d="M8477 6921 c-32 -16 -39 -17 -44 -5 -3 8 -16 14 -29 14 l-24 0 0
-150 0 -150 30 0 30 0 0 109 c0 106 1 110 26 130 33 26 55 26 85 2 22 -17 24
-28 27 -130 4 -109 5 -111 28 -111 24 0 24 0 24 115 0 139 -11 169 -68 184
-47 14 -41 14 -85 -8z"/>
<path d="M9780 6895 l0 -45 -45 0 c-41 0 -45 -2 -45 -25 0 -23 4 -25 45 -25
l45 0 0 -110 c0 -117 13 -171 47 -188 31 -16 87 -22 126 -13 47 11 50 14 42
40 -6 19 -12 21 -55 15 -40 -5 -51 -3 -69 15 -19 19 -21 32 -21 131 l0 109 68
3 c61 3 67 5 70 26 3 21 0 22 -67 22 l-71 0 0 45 c0 45 0 45 -35 45 -35 0 -35
0 -35 -45z"/>
<path d="M10188 6898 l-3 -43 -48 -3 c-43 -3 -48 -5 -45 -25 3 -19 10 -22 51
-25 l47 -3 0 -114 c0 -127 7 -156 46 -181 27 -18 97 -23 145 -11 22 6 25 11
21 32 -4 24 -7 25 -48 19 -33 -5 -51 -2 -69 10 -24 16 -25 20 -25 131 l0 115
65 0 c63 0 65 1 65 25 0 24 -2 25 -65 25 l-65 0 0 45 c0 45 0 45 -34 45 -34 0
-35 -1 -38 -42z"/>
<path d="M10608 6845 c-17 -10 -29 -11 -33 -5 -3 5 -19 10 -36 10 l-29 0 0
-250 0 -250 35 0 35 0 0 81 c0 73 2 80 18 74 100 -41 175 -12 209 78 18 51 15
146 -7 194 -33 74 -123 105 -192 68z m119 -84 c41 -61 26 -183 -26 -211 -31
-16 -66 -12 -95 11 -25 19 -26 25 -26 109 0 79 2 92 22 110 17 15 33 20 63 18
32 -2 44 -9 62 -37z"/>
<path d="M2860 6656 c0 -19 -6 -25 -27 -28 -40 -4 -44 -38 -5 -38 l29 0 5 -80
c6 -100 20 -120 89 -120 26 0 50 4 53 8 10 16 -10 31 -40 30 -49 -1 -54 7 -54
88 l0 74 45 0 c38 0 45 3 45 20 0 17 -7 20 -45 20 -41 0 -45 2 -45 25 0 20 -5
25 -25 25 -20 0 -25 -5 -25 -24z"/>
<path d="M3920 6655 c0 -21 -5 -25 -30 -25 -23 0 -30 -4 -30 -20 0 -16 7 -20
30 -20 l30 0 0 -80 c0 -101 16 -123 88 -118 37 2 48 7 50 22 4 16 0 18 -27 13
-50 -10 -71 18 -71 98 l0 65 45 0 c38 0 45 3 45 20 0 17 -7 20 -45 20 -41 0
-45 2 -45 25 0 18 -5 25 -20 25 -15 0 -20 -7 -20 -25z"/>
<path d="M2589 6615 c-63 -34 -39 -96 47 -121 76 -22 86 -53 22 -69 -21 -5
-33 -1 -53 19 -31 31 -55 34 -55 7 0 -32 47 -61 99 -61 61 0 91 21 91 64 0 41
-12 52 -81 74 -42 13 -54 22 -54 37 0 30 69 35 85 6 14 -27 50 -28 50 -2 0 50
-93 78 -151 46z"/>
<path d="M3110 6510 c0 -113 1 -120 20 -120 18 0 20 7 20 79 0 75 2 81 27 101
17 13 38 20 58 18 25 -2 31 1 33 20 3 19 -1 22 -35 22 -21 0 -49 -7 -61 -16
-20 -14 -22 -14 -22 0 0 9 -9 16 -20 16 -19 0 -20 -7 -20 -120z"/>
<path d="M3340 6536 c0 -79 3 -97 21 -120 15 -20 29 -26 58 -26 20 0 43 6 50
13 11 10 14 10 18 0 3 -7 13 -13 24 -13 18 0 19 8 19 120 0 113 -1 120 -20
120 -18 0 -20 -7 -20 -83 0 -88 -9 -111 -47 -120 -45 -10 -58 14 -61 112 -4
82 -6 91 -23 91 -17 0 -19 -8 -19 -94z"/>
<path d="M3637 6609 c-53 -41 -56 -142 -6 -195 34 -36 101 -34 140 5 16 16 29
34 29 40 0 18 -37 12 -51 -8 -39 -54 -109 -17 -109 56 0 51 23 83 60 83 20 0
35 -8 46 -25 21 -33 58 -35 49 -2 -18 62 -105 88 -158 46z"/>
<path d="M4130 6548 c0 -110 19 -152 72 -156 20 -2 46 2 58 8 13 7 20 7 20 0
0 -5 9 -10 20 -10 19 0 20 7 20 120 0 113 -1 120 -20 120 -17 0 -20 -8 -22
-92 -3 -86 -5 -93 -27 -104 -14 -7 -33 -9 -45 -5 -19 7 -22 18 -26 102 -5 88
-6 94 -27 97 -22 3 -23 1 -23 -80z"/>
<path d="M4430 6510 c0 -113 1 -120 20 -120 18 0 20 7 20 79 0 75 2 81 27 101
17 13 38 20 58 18 25 -2 31 1 33 20 3 19 -1 22 -35 22 -21 0 -49 -7 -61 -16
-20 -14 -22 -14 -22 0 0 9 -9 16 -20 16 -19 0 -20 -7 -20 -120z"/>
<path d="M4702 6614 c-68 -47 -69 -159 -2 -211 26 -21 104 -16 135 9 23 18 25
22 11 30 -10 6 -26 3 -45 -7 -42 -21 -101 5 -101 47 0 16 9 18 80 18 88 0 92
3 69 68 -20 57 -97 81 -147 46z m98 -43 c18 -35 12 -41 -45 -41 -59 0 -68 10
-38 42 22 24 69 24 83 -1z"/>
<path d="M4956 6609 c-17 -14 -26 -30 -26 -49 0 -34 24 -53 88 -70 50 -13 64
-36 36 -57 -24 -17 -64 -9 -83 17 -16 24 -51 27 -51 5 0 -9 11 -27 25 -40 19
-20 34 -25 75 -25 41 0 56 5 75 25 47 46 24 86 -62 111 -59 17 -70 28 -53 49
18 22 60 18 86 -6 31 -29 58 -19 43 15 -22 48 -106 62 -153 25z"/>
<path d="M13257 6574 c-4 -4 -7 -38 -7 -75 l0 -68 -27 15 c-36 18 -57 18 -98
-2 -35 -16 -75 -89 -75 -136 0 -45 22 -102 50 -130 23 -23 37 -28 77 -28 27 0
55 6 62 13 11 10 14 10 18 0 3 -7 16 -13 29 -13 l24 0 -2 213 c-3 205 -4 212
-23 215 -12 2 -24 0 -28 -4z m-27 -184 c16 -16 20 -33 20 -89 0 -63 -2 -71
-26 -90 -34 -27 -47 -26 -80 2 -22 19 -28 34 -32 80 -4 52 -2 58 26 87 35 35
64 38 92 10z"/>
<path d="M13800 6485 c0 -33 -2 -35 -35 -35 -28 0 -35 -4 -35 -20 0 -16 7 -20
34 -20 l34 0 4 -104 c3 -95 6 -107 28 -131 22 -23 31 -26 85 -23 55 3 60 5 63
27 4 22 2 23 -35 18 -27 -5 -46 -2 -61 9 -20 14 -22 24 -22 110 l0 94 55 0
c48 0 55 2 55 20 0 18 -7 20 -55 20 l-55 0 0 35 c0 32 -2 35 -30 35 -28 0 -30
-3 -30 -35z"/>
<path d="M13481 6450 c-38 -9 -68 -36 -73 -65 -5 -30 29 -31 57 -1 24 26 67
34 91 18 17 -11 36 -51 29 -62 -3 -6 -32 -10 -63 -10 -87 0 -122 -28 -122 -97
0 -33 5 -46 26 -62 30 -24 101 -28 137 -10 16 9 22 9 25 0 2 -6 16 -11 31 -11
l27 0 -4 123 c-4 106 -7 125 -25 145 -17 18 -79 44 -97 41 -3 -1 -20 -5 -39
-9z m109 -185 c0 -36 -37 -65 -82 -65 -32 0 -41 5 -50 26 -11 23 -10 29 11 45
16 13 39 19 72 19 45 0 49 -2 49 -25z"/>
<path d="M14151 6450 c-38 -9 -68 -36 -73 -65 -5 -30 29 -31 57 -1 24 26 67
34 91 18 17 -11 36 -51 29 -62 -3 -6 -32 -10 -63 -10 -87 0 -122 -28 -122 -97
0 -33 5 -46 26 -62 30 -24 101 -28 137 -10 16 9 22 9 25 0 2 -6 16 -11 31 -11
l27 0 -4 123 c-4 106 -7 125 -25 145 -17 18 -79 44 -97 41 -3 -1 -20 -5 -39
-9z m109 -185 c0 -36 -37 -65 -82 -65 -32 0 -41 5 -50 26 -11 23 -10 29 11 45
16 13 39 19 72 19 45 0 49 -2 49 -25z"/>
<path d="M11740 6370 l0 -40 80 0 80 0 0 -270 0 -270 -80 0 -80 0 0 -40 0 -40
205 0 205 0 0 40 0 40 -80 0 -80 0 0 310 0 310 -125 0 -125 0 0 -40z"/>
<path d="M9630 6260 l0 -60 -66 0 -65 0 3 -32 c3 -33 3 -33 66 -36 l62 -3 0
-152 c0 -167 13 -219 62 -251 35 -23 106 -30 172 -16 56 11 57 12 54 43 l-3
32 -62 -3 c-122 -7 -133 10 -133 207 l0 140 93 3 92 3 3 33 3 32 -95 0 -96 0
0 60 0 60 -45 0 -45 0 0 -60z"/>
<path d="M6234 6247 c-2 -7 -3 -102 -2 -212 l3 -200 28 -3 27 -3 0 110 c0 106
1 110 26 130 31 25 61 26 89 5 18 -13 20 -29 23 -129 4 -114 4 -115 28 -115
l24 0 0 123 c0 141 -8 160 -71 177 -35 10 -47 8 -80 -8 l-39 -19 0 78 c0 78 0
79 -25 79 -14 0 -28 -6 -31 -13z"/>
<path d="M6681 6226 c-16 -20 -3 -46 24 -46 13 0 26 7 29 16 7 19 -10 44 -29
44 -7 0 -18 -6 -24 -14z"/>
<path d="M8004 6196 c-18 -8 -35 -19 -38 -25 -11 -18 -26 -13 -26 9 0 17 -7
20 -40 20 l-40 0 0 -340 0 -340 45 0 45 0 0 117 c0 111 1 115 18 100 31 -28
115 -42 164 -28 57 17 111 75 128 137 17 59 17 163 1 222 -14 51 -64 110 -108
128 -41 18 -109 17 -149 0z m120 -87 c43 -34 59 -76 59 -155 0 -80 -27 -144
-70 -163 -43 -20 -99 -13 -132 15 l-31 26 0 123 0 123 31 26 c39 33 104 36
143 5z"/>
<path d="M8646 6190 c-22 -11 -48 -27 -58 -36 -17 -16 -18 -16 -18 14 0 31 -1
32 -45 32 l-45 0 0 -245 0 -245 45 0 45 0 0 158 c0 138 2 161 20 189 29 49 71
66 151 61 61 -3 68 -2 73 17 10 36 6 63 -10 69 -33 13 -120 5 -158 -14z"/>
<path d="M9075 6191 c-102 -47 -153 -171 -125 -305 44 -212 312 -252 413 -62
31 59 32 203 0 261 -59 110 -182 155 -288 106z m158 -75 c42 -26 62 -77 62
-161 0 -93 -23 -144 -76 -165 -119 -50 -215 70 -180 225 13 56 56 111 94 118
28 6 76 -2 100 -17z"/>
<path d="M10195 6198 c-50 -18 -84 -47 -112 -96 -26 -43 -28 -56 -28 -147 0
-91 2 -104 28 -147 40 -69 102 -103 187 -103 86 0 142 31 185 99 27 44 30 59
33 140 3 83 1 96 -25 146 -39 77 -91 111 -174 116 -35 2 -77 -1 -94 -8z m145
-86 c85 -62 85 -252 -1 -315 -35 -25 -104 -25 -137 0 -48 36 -63 80 -60 168 2
65 7 86 27 114 43 60 114 74 171 33z"/>
<path d="M10735 6192 c-89 -42 -130 -127 -123 -255 7 -130 57 -201 161 -228
93 -23 206 21 240 94 27 56 23 67 -23 67 -33 0 -42 -4 -50 -24 -15 -40 -58
-66 -110 -66 -87 0 -130 58 -130 175 0 104 37 164 111 180 43 10 100 -21 122
-67 17 -34 22 -38 58 -38 33 0 39 3 39 20 0 37 -40 99 -80 126 -54 36 -157 44
-215 16z"/>
<path d="M11285 6191 c-93 -42 -142 -137 -133 -260 6 -78 32 -135 82 -179 106
-93 274 -55 336 75 30 61 32 186 6 248 -49 114 -181 167 -291 116z m155 -80
c46 -33 65 -79 65 -156 0 -77 -19 -122 -66 -158 -33 -24 -98 -25 -133 -2 -60
39 -85 167 -50 255 33 81 117 109 184 61z"/>
<path d="M12405 6197 c-78 -31 -105 -66 -105 -138 0 -62 44 -100 152 -129 106
-28 136 -44 144 -76 8 -33 -19 -62 -69 -74 -68 -15 -138 15 -158 68 -7 18 -16
22 -49 22 -34 0 -40 -3 -40 -20 0 -95 139 -169 265 -143 99 21 152 79 142 155
-9 67 -45 94 -174 129 -101 27 -123 41 -123 79 0 82 169 86 200 4 8 -20 16
-24 50 -24 38 0 40 1 40 31 0 41 -60 103 -115 118 -51 14 -121 13 -160 -2z"/>
<path d="M4960 6165 c0 -34 -1 -35 -40 -35 -33 0 -40 -3 -40 -20 0 -17 7 -20
40 -20 l40 0 0 -104 c0 -96 2 -105 25 -130 23 -25 31 -27 87 -24 55 3 63 5 63
23 0 16 -7 20 -35 21 -19 0 -43 1 -52 2 -24 3 -40 64 -36 142 l3 65 58 3 c48
3 57 6 57 22 0 16 -9 19 -57 22 -57 3 -58 3 -61 36 -3 26 -7 32 -28 32 -21 0
-24 -5 -24 -35z"/>
<path d="M5300 6123 c-52 -27 -80 -75 -80 -140 0 -100 48 -153 137 -153 79 0
143 41 108 70 -11 9 -22 7 -50 -10 -25 -16 -43 -20 -63 -15 -35 8 -72 43 -72
67 0 16 10 18 100 18 l100 0 0 43 c0 23 -6 53 -13 66 -30 59 -108 84 -167 54z
m91 -46 c15 -11 39 -49 39 -61 0 -3 -34 -6 -75 -6 -84 0 -95 11 -50 55 26 27
61 32 86 12z"/>
<path d="M5650 6133 c-33 -5 -78 -42 -82 -68 -5 -32 38 -32 63 -1 25 32 70 35
100 5 37 -37 22 -53 -55 -60 -59 -5 -73 -10 -93 -33 -31 -37 -31 -89 2 -121
19 -19 35 -25 70 -25 26 0 56 5 67 11 14 8 23 8 31 0 6 -6 21 -11 33 -11 22 0
22 1 17 123 -6 125 -17 161 -51 171 -33 9 -78 13 -102 9z m100 -193 c0 -38
-35 -62 -86 -58 -28 2 -39 9 -45 26 -14 36 20 62 81 62 49 0 50 -1 50 -30z"/>
<path d="M5983 6129 c-96 -28 -125 -189 -48 -266 29 -29 39 -33 89 -33 48 0
60 4 91 31 19 17 35 40 35 50 0 29 -38 23 -70 -11 -35 -38 -64 -38 -101 -1
-24 25 -29 38 -29 79 0 60 36 112 76 112 25 0 74 -40 74 -60 0 -5 11 -10 25
-10 28 0 31 15 13 54 -22 49 -92 74 -155 55z"/>
<path d="M6998 6122 c-30 -16 -38 -17 -38 -6 0 8 -10 14 -25 14 l-25 0 0 -150
0 -150 25 0 25 0 0 104 c0 117 11 141 66 152 24 5 37 1 53 -15 19 -19 21 -33
21 -131 l0 -110 30 0 30 0 0 98 c0 53 -5 114 -11 135 -18 65 -87 92 -151 59z"/>
<path d="M7306 6125 c-40 -21 -53 -41 -67 -100 -23 -102 30 -195 111 -195 23
0 50 5 61 10 31 17 25 -34 -7 -59 -34 -27 -64 -27 -98 0 -26 20 -29 20 -44 5
-15 -15 -15 -18 4 -37 50 -49 156 -42 198 14 19 26 21 44 24 198 l3 169 -25 0
c-13 0 -26 -6 -29 -12 -3 -10 -7 -10 -18 -1 -25 20 -82 25 -113 8z m102 -51
c19 -13 22 -24 22 -89 0 -77 -9 -97 -51 -110 -26 -8 -67 18 -79 51 -20 51 -12
103 19 135 33 33 56 36 89 13z"/>
<path d="M6580 6105 c0 -23 3 -25 50 -25 l50 0 0 -100 0 -100 -50 0 c-47 0
-50 -2 -50 -25 l0 -25 125 0 125 0 0 25 c0 23 -3 25 -50 25 l-50 0 0 125 0
125 -75 0 c-73 0 -75 -1 -75 -25z"/>
<path d="M7397 5526 c-84 -23 -136 -96 -137 -188 l0 -47 -77 -3 -78 -3 -3 -37
-3 -37 78 -3 78 -3 3 -237 2 -238 50 0 50 0 0 240 0 240 106 0 105 0 -3 38 -3
37 -102 3 -103 3 0 45 c0 39 5 51 35 81 l36 36 84 -6 c84 -6 85 -6 85 18 0 13
3 30 6 38 6 17 -19 25 -103 32 -34 3 -78 -1 -106 -9z"/>
<path d="M8380 5475 l0 -45 90 0 90 0 0 -305 0 -305 -90 0 -90 0 0 -45 0 -45
230 0 230 0 0 45 0 45 -90 0 -90 0 0 350 0 350 -140 0 -140 0 0 -45z"/>
<path d="M9007 5514 c-4 -4 -7 -25 -7 -46 l0 -38 95 0 95 0 0 -305 0 -304 -92
-3 -93 -3 -3 -42 -3 -43 235 0 236 0 0 45 0 45 -90 0 -90 0 -2 348 -3 347
-136 3 c-74 1 -138 -1 -142 -4z"/>
<path d="M12737 5513 c-4 -3 -7 -181 -7 -395 l0 -388 50 0 50 0 0 93 0 93 35
34 c19 18 36 32 38 29 2 -2 47 -59 101 -126 l96 -123 60 0 c33 0 60 2 60 5 0
3 -56 76 -126 162 l-125 157 111 111 c61 61 108 114 104 118 -4 4 -30 7 -58 7
l-51 0 -122 -122 -123 -123 0 238 0 237 -43 0 c-24 0 -47 -3 -50 -7z"/>
<path d="M10990 5355 l0 -64 -72 -3 -73 -3 -3 -37 -3 -38 75 0 76 0 0 -177 c0
-152 3 -184 19 -219 24 -53 61 -81 119 -90 48 -7 168 8 182 23 4 4 6 22 3 40
l-5 32 -68 -6 c-141 -12 -150 2 -150 232 l0 165 106 0 105 0 -3 38 -3 37 -102
3 -103 3 0 64 0 65 -50 0 -50 0 0 -65z"/>
<path d="M6280 5015 l0 -305 35 0 c29 0 35 4 35 20 0 20 0 20 29 -1 21 -16 45
-22 83 -23 69 -1 115 26 148 85 21 37 25 57 25 129 0 146 -56 222 -165 222
-26 0 -63 -7 -81 -16 -18 -9 -34 -16 -36 -16 -1 0 -3 47 -3 105 l0 105 -35 0
-35 0 0 -305z m225 43 c54 -42 71 -138 39 -218 -32 -80 -122 -93 -176 -26 -14
16 -18 41 -17 111 0 94 5 107 49 138 33 23 72 21 105 -5z"/>
<path d="M10423 5289 c-100 -13 -163 -75 -163 -160 0 -81 49 -120 199 -159 46
-11 94 -28 107 -37 56 -36 35 -104 -38 -124 -81 -21 -188 22 -188 77 0 10 -14
14 -50 14 -46 0 -50 -2 -50 -24 0 -31 38 -85 79 -113 103 -69 289 -49 353 38
28 37 34 99 14 140 -23 48 -72 76 -184 105 -124 33 -142 44 -142 89 0 29 6 39
33 55 65 40 178 14 193 -45 6 -23 11 -25 56 -25 l51 0 -6 35 c-16 97 -124 152
-264 134z"/>
<path d="M11658 5289 c-88 -13 -168 -78 -168 -138 0 -18 6 -21 48 -21 42 0 48
3 60 28 16 37 50 52 113 52 45 0 55 -4 85 -34 26 -26 34 -43 34 -69 l0 -34
-105 -5 c-156 -8 -223 -48 -245 -144 -36 -155 149 -258 306 -170 l44 25 6 -25
c6 -22 11 -24 61 -24 49 0 54 2 47 18 -4 9 -10 107 -13 217 -6 202 -10 224
-50 269 -39 44 -134 68 -223 55z m172 -343 c0 -63 -23 -98 -77 -121 -72 -30
-156 -9 -170 43 -23 87 36 128 185 131 l62 1 0 -54z"/>
<path d="M12299 5289 c-62 -9 -100 -31 -142 -79 -45 -52 -62 -115 -61 -217 1
-137 57 -221 169 -259 112 -39 257 20 294 119 19 50 15 57 -34 57 -41 0 -45
-3 -61 -36 -22 -47 -89 -79 -141 -69 -86 16 -126 78 -127 195 0 134 41 199
133 208 64 6 112 -22 137 -79 17 -37 20 -39 61 -39 38 0 43 3 43 23 0 40 -43
111 -85 140 -46 32 -119 46 -186 36z"/>
<path d="M7744 5276 c-3 -8 -4 -104 -2 -213 3 -190 4 -201 28 -248 31 -60 90
-95 159 -95 49 0 117 26 140 53 20 25 31 21 31 -13 0 -29 2 -30 45 -30 l45 0
-2 278 -3 277 -45 0 -45 0 -5 -206 c-5 -221 -7 -226 -61 -255 -32 -16 -112
-19 -139 -4 -40 21 -45 48 -50 260 l-5 205 -43 3 c-30 2 -44 -1 -48 -12z"/>
<path d="M5935 5141 c-131 -32 -194 -191 -130 -328 39 -85 124 -124 224 -104
54 11 121 52 121 74 0 7 -9 18 -20 25 -18 11 -25 10 -51 -9 -83 -59 -190 -22
-214 74 l-7 27 152 0 153 0 -6 60 c-9 107 -63 170 -157 183 -19 3 -48 2 -65
-2z m93 -77 c22 -15 52 -63 52 -84 0 -6 -40 -10 -109 -10 l-110 0 10 30 c24
67 105 100 157 64z"/>
<path d="M5270 5133 c-1 -5 18 -101 42 -215 l43 -208 31 0 32 0 32 133 c18 72
36 137 39 144 3 6 21 -54 40 -133 l35 -144 33 0 c18 0 33 2 33 5 0 7 81 388
86 408 4 14 -1 17 -30 17 -20 0 -36 -1 -37 -2 0 -2 -12 -72 -27 -156 l-27
-153 -39 156 c-38 154 -39 156 -64 153 -25 -3 -28 -11 -62 -148 -20 -80 -39
-138 -42 -130 -3 8 -16 75 -28 148 l-23 132 -34 0 c-18 0 -33 -3 -33 -7z"/>
<path d="M9630 5060 l0 -40 201 0 200 0 -3 38 -3 37 -197 3 -198 2 0 -40z"/>
<path d="M2790 4972 l0 -119 52 -1 c61 -1 85 15 94 63 13 71 -36 125 -94 104
-20 -8 -22 -5 -22 31 0 29 -4 40 -15 40 -12 0 -15 -20 -15 -118z m98 16 c13
-13 16 -66 6 -92 -7 -19 -45 -21 -62 -4 -19 19 -15 85 6 97 23 14 36 13 50 -1z"/>
<path d="M4390 5065 c0 -8 7 -15 15 -15 8 0 15 7 15 15 0 8 -7 15 -15 15 -8 0
-15 -7 -15 -15z"/>
<path d="M4560 5040 c0 -13 -7 -20 -20 -20 -11 0 -20 -4 -20 -10 0 -5 9 -10
20 -10 18 0 20 -7 20 -56 0 -76 11 -94 60 -94 51 0 57 27 8 32 -33 3 -33 4
-36 61 l-3 57 36 0 c19 0 35 5 35 10 0 6 -16 10 -35 10 -28 0 -35 4 -35 20 0
11 -7 20 -15 20 -8 0 -15 -9 -15 -20z"/>
<path d="M2465 5022 c-49 -10 -73 -66 -54 -122 12 -34 35 -50 71 -50 29 0 68
26 68 46 0 20 -16 18 -40 -6 -12 -12 -26 -17 -37 -13 -26 9 -33 23 -33 66 0
31 5 40 26 49 23 11 29 10 44 -10 20 -25 40 -29 40 -9 0 28 -49 57 -85 49z"/>
<path d="M3031 5018 c-35 -13 -50 -38 -51 -84 0 -52 31 -84 81 -84 33 0 59 14
59 32 0 5 -19 5 -42 2 -33 -6 -44 -4 -55 11 -22 31 -16 35 47 35 54 0 60 2 60
21 0 50 -51 85 -99 67z m52 -36 c21 -23 13 -32 -28 -32 -17 0 -35 3 -38 7 -9
8 22 43 38 43 7 0 19 -8 28 -18z"/>
<path d="M3258 5016 c-16 -8 -28 -11 -28 -5 0 5 -7 9 -15 9 -12 0 -15 -16 -15
-85 0 -69 3 -85 15 -85 11 0 15 12 15 51 0 69 12 89 55 89 37 0 49 22 19 34
-19 7 -14 8 -46 -8z"/>
<path d="M3421 5021 c-13 -4 -30 -16 -37 -27 -19 -28 5 -61 51 -70 43 -8 54
-23 30 -41 -25 -17 -31 -17 -55 7 -23 23 -40 26 -40 7 0 -23 35 -47 69 -47 97
0 96 81 -2 104 -20 5 -27 12 -25 24 4 22 41 27 58 7 13 -15 40 -21 40 -7 -1
28 -51 52 -89 43z"/>
<path d="M3602 5015 c-51 -22 -61 -119 -15 -152 37 -28 135 -2 107 27 -8 8
-14 9 -18 1 -9 -15 -59 -14 -74 1 -27 27 -13 38 48 38 64 0 66 1 49 48 -14 40
-53 55 -97 37z m56 -27 c24 -24 13 -38 -28 -38 -43 0 -49 9 -24 34 19 19 36
20 52 4z"/>
<path d="M3803 5022 c-33 -5 -53 -40 -53 -89 0 -54 26 -83 73 -83 33 0 67 24
67 48 0 17 -8 15 -37 -8 -23 -18 -29 -19 -47 -7 -37 25 -33 100 6 113 16 5 27
1 39 -15 19 -23 39 -28 39 -8 -1 31 -44 56 -87 49z"/>
<path d="M4218 5016 c-16 -8 -28 -11 -28 -5 0 5 -7 9 -15 9 -12 0 -15 -16 -15
-85 0 -69 3 -85 15 -85 11 0 15 12 15 51 0 69 12 89 55 89 37 0 49 22 19 34
-19 7 -14 8 -46 -8z"/>
<path d="M2590 5014 c0 -3 14 -37 31 -76 33 -76 33 -116 -1 -125 -23 -6 -27
-33 -6 -33 29 0 56 38 99 138 41 94 43 102 25 102 -11 0 -22 -8 -24 -17 -3
-10 -13 -36 -23 -58 l-19 -40 -26 58 c-15 33 -32 57 -41 57 -8 0 -15 -3 -15
-6z"/>
<path d="M3942 4950 c7 -89 16 -100 84 -99 l54 2 0 83 c0 67 -3 84 -15 84 -11
0 -15 -16 -17 -67 l-3 -68 -30 0 -30 0 -3 68 c-3 60 -5 67 -24 67 -19 0 -20
-4 -16 -70z"/>
<path d="M4332 5008 c3 -7 17 -14 31 -16 26 -3 27 -6 27 -58 0 -53 0 -54 -30
-54 -20 0 -30 -5 -30 -15 0 -12 15 -15 75 -15 60 0 75 3 75 15 0 10 -10 15
-30 15 l-30 0 0 70 0 70 -46 0 c-32 0 -44 -4 -42 -12z"/>
<path d="M4700 5016 c0 -3 16 -40 35 -82 33 -72 34 -79 20 -101 -9 -12 -22
-23 -30 -23 -8 0 -15 -7 -15 -15 0 -33 53 -8 76 37 9 17 31 66 50 109 30 71
31 79 15 79 -14 0 -25 -17 -42 -61 l-22 -62 -24 53 c-13 29 -23 56 -23 61 0 5
-9 9 -20 9 -11 0 -20 -2 -20 -4z"/>
<path d="M3370 4625 c0 -11 11 -15 40 -15 l40 0 0 -130 0 -130 -40 0 c-33 0
-40 -3 -40 -20 0 -19 7 -20 100 -20 93 0 100 1 100 20 0 17 -7 20 -40 20 l-40
0 0 145 0 145 -60 0 c-47 0 -60 -3 -60 -15z"/>
<path d="M4242 4608 c2 -15 10 -23 23 -23 30 0 27 39 -3 43 -20 3 -23 0 -20
-20z"/>
<path d="M3950 4575 c0 -21 -5 -25 -30 -25 -23 0 -30 -4 -30 -20 0 -16 7 -20
30 -20 l30 0 0 -83 c0 -104 12 -120 86 -115 36 2 49 7 49 18 0 10 -12 15 -39
17 -21 0 -42 7 -47 15 -5 7 -9 43 -9 81 l0 67 45 0 c38 0 45 3 45 20 0 17 -7
20 -45 20 -41 0 -45 2 -45 25 0 18 -5 25 -20 25 -15 0 -20 -7 -20 -25z"/>
<path d="M2876 4529 c-17 -14 -26 -30 -26 -49 0 -34 24 -53 88 -70 65 -17 70
-51 10 -65 -21 -6 -32 -1 -51 19 -29 31 -57 34 -57 7 0 -33 47 -61 100 -61 58
0 93 24 93 63 0 39 -18 55 -79 73 -60 17 -71 28 -54 49 18 22 67 19 82 -5 16
-26 48 -26 48 -1 0 29 -47 61 -90 61 -23 0 -48 -8 -64 -21z"/>
<path d="M3131 4524 c-34 -28 -47 -74 -36 -130 15 -83 116 -115 176 -55 24 25
29 37 29 81 0 28 -5 61 -11 73 -31 61 -105 76 -158 31z m109 -29 c22 -27 24
-98 4 -122 -34 -40 -80 -34 -100 12 -25 60 4 125 56 125 15 0 33 -7 40 -15z"/>
<path d="M3630 4468 c0 -110 19 -152 72 -156 20 -2 46 2 58 8 13 7 20 7 20 0
0 -5 9 -10 20 -10 19 0 20 7 20 120 0 113 -1 120 -20 120 -17 0 -20 -8 -22
-92 -3 -86 -5 -93 -27 -104 -14 -7 -33 -9 -45 -5 -19 7 -22 18 -26 102 -5 88
-6 94 -27 97 -22 3 -23 1 -23 -80z"/>
<path d="M4167 4544 c-19 -19 -5 -34 33 -34 l40 0 0 -80 0 -80 -40 0 c-33 0
-40 -3 -40 -20 0 -19 7 -20 100 -20 93 0 100 1 100 20 0 16 -7 20 -35 20 l-34
0 -3 98 -3 97 -55 3 c-31 2 -59 0 -63 -4z"/>
<path d="M4451 4524 c-34 -28 -47 -74 -36 -130 15 -83 116 -115 176 -55 24 25
29 37 29 81 0 28 -5 61 -11 73 -31 61 -105 76 -158 31z m109 -29 c22 -27 24
-98 4 -122 -34 -40 -80 -34 -100 12 -25 60 4 125 56 125 15 0 33 -7 40 -15z"/>
<path d="M4690 4430 c0 -113 1 -120 20 -120 18 0 20 7 20 84 0 95 11 116 61
116 38 0 49 -27 49 -126 0 -67 2 -74 20 -74 19 0 20 7 20 94 0 79 -3 97 -21
120 -15 20 -29 26 -58 26 -20 0 -42 -5 -49 -12 -9 -9 -15 -9 -24 0 -32 32 -38
14 -38 -108z"/>
<path d="M4986 4529 c-17 -14 -26 -30 -26 -49 0 -34 24 -53 88 -70 50 -13 64
-36 36 -57 -24 -17 -64 -9 -83 17 -16 24 -51 27 -51 5 0 -9 11 -27 25 -40 19
-20 34 -25 75 -25 41 0 56 5 75 25 47 46 24 86 -62 111 -59 17 -70 28 -53 49
18 22 60 18 86 -6 31 -29 58 -19 43 15 -22 48 -106 62 -153 25z"/>
<path d="M10675 4518 c-3 -7 -4 -204 -3 -438 l3 -425 55 0 55 0 3 106 3 106
34 33 c19 19 36 32 38 29 2 -2 52 -66 111 -141 l108 -138 70 0 c55 0 68 3 61
13 -5 6 -65 82 -133 167 -68 85 -128 161 -133 168 -7 9 23 46 114 140 l124
127 -64 3 -65 3 -133 -133 -133 -132 -2 259 -3 260 -53 3 c-36 2 -54 -1 -57
-10z"/>
<path d="M12540 4470 c0 -37 -2 -39 -22 -31 -50 19 -88 -19 -88 -86 0 -63 21
-83 86 -82 l54 2 0 118 c0 99 -3 119 -15 119 -11 0 -15 -11 -15 -40z m-16 -63
c13 -10 17 -24 14 -57 -3 -38 -7 -45 -26 -48 -13 -2 -30 2 -38 8 -19 16 -18
75 2 94 19 19 25 20 48 3z"/>
<path d="M14160 4390 c0 -100 3 -120 15 -120 12 0 15 14 15 65 0 60 2 66 25
77 40 18 55 -3 55 -78 0 -50 3 -64 15 -64 21 0 22 142 1 159 -17 15 -43 17
-73 7 -21 -7 -23 -4 -23 33 0 30 -4 41 -15 41 -12 0 -15 -20 -15 -120z"/>
<path d="M14410 4485 c0 -8 9 -15 20 -15 11 0 20 7 20 15 0 8 -9 15 -20 15
-11 0 -20 -7 -20 -15z"/>
<path d="M12280 4460 c0 -13 -7 -20 -20 -20 -11 0 -20 -4 -20 -10 0 -5 9 -10
20 -10 18 0 20 -7 20 -56 0 -76 11 -94 60 -94 51 0 57 27 8 32 -33 3 -33 4
-36 61 l-3 57 36 0 c19 0 35 5 35 10 0 6 -16 10 -35 10 -28 0 -35 4 -35 20 0
11 -7 20 -15 20 -8 0 -15 -9 -15 -20z"/>
<path d="M11892 4435 c-73 -31 -48 -165 32 -165 48 0 76 31 76 83 0 74 -45
108 -108 82z m60 -32 c20 -18 24 -73 6 -91 -47 -47 -107 39 -61 90 20 22 31
23 55 1z"/>
<path d="M12673 4442 c-33 -5 -53 -40 -53 -89 0 -54 26 -83 74 -83 44 0 76 38
76 89 -1 57 -42 92 -97 83z m56 -54 c30 -53 -21 -114 -65 -78 -19 17 -18 75 2
95 22 22 45 15 63 -17z"/>
<path d="M12852 4435 c-73 -31 -48 -165 32 -165 48 0 76 31 76 83 0 74 -45
108 -108 82z m60 -32 c20 -18 24 -73 6 -91 -47 -47 -107 39 -61 90 20 22 31
23 55 1z"/>
<path d="M13105 4442 c-11 -2 -26 -9 -32 -14 -9 -7 -13 -7 -13 1 0 6 -7 11
-15 11 -12 0 -15 -16 -15 -85 0 -69 3 -85 15 -85 11 0 15 12 15 51 0 69 12 89
55 89 23 0 35 5 35 14 0 17 -18 24 -45 18z"/>
<path d="M13253 4442 c-29 -4 -45 -26 -41 -54 2 -16 15 -27 48 -39 25 -9 46
-24 48 -33 2 -9 -1 -16 -6 -16 -6 0 -17 -3 -25 -6 -8 -3 -24 5 -36 17 -17 18
-24 20 -34 10 -17 -17 25 -51 65 -51 94 0 91 82 -4 104 -16 4 -28 13 -28 21 0
22 39 29 59 11 22 -20 41 -21 41 -2 0 26 -43 45 -87 38z"/>
<path d="M13413 4442 l-33 -3 0 -85 c0 -68 3 -84 15 -84 12 0 15 14 15 69 0
69 13 98 31 70 5 -8 9 -42 9 -76 0 -48 3 -63 15 -63 11 0 15 17 17 73 2 39 8
72 13 72 6 0 11 -33 13 -72 2 -56 6 -73 17 -73 12 0 15 17 15 80 0 66 -3 81
-18 89 -10 5 -24 6 -32 1 -8 -5 -21 -5 -29 -2 -9 4 -31 6 -48 4z"/>
<path d="M13635 4442 c-26 -5 -45 -21 -45 -38 0 -19 26 -18 34 1 7 18 37 20
54 3 20 -20 14 -26 -28 -33 -45 -8 -70 -27 -70 -55 0 -34 27 -49 88 -48 l57 1
-3 71 c-2 39 -8 76 -13 82 -11 14 -46 21 -74 16z m55 -105 c0 -20 -21 -37 -46
-37 -29 0 -39 16 -24 35 15 19 70 20 70 2z"/>
<path d="M13846 4443 c-3 -3 -19 -6 -36 -5 l-30 1 0 -85 c0 -68 3 -84 15 -84
12 0 15 14 15 65 0 53 3 66 19 75 42 22 61 -7 61 -92 0 -36 4 -48 15 -48 12 0
15 13 15 58 0 31 -3 67 -6 79 -6 21 -56 47 -68 36z"/>
<path d="M14021 4441 c-13 -4 -30 -16 -37 -27 -19 -28 5 -61 51 -70 43 -8 54
-23 30 -41 -25 -17 -31 -17 -55 7 -23 23 -40 26 -40 7 0 -23 35 -47 69 -47 97
0 96 81 -2 104 -20 5 -27 12 -25 24 4 22 41 27 58 7 13 -15 40 -21 40 -7 -1
28 -51 52 -89 43z"/>
<path d="M14605 4442 c-2 -3 -18 -5 -35 -4 l-30 1 0 -115 c0 -92 3 -114 14
-114 9 0 16 12 18 33 3 30 5 32 39 29 30 -3 40 2 58 24 25 31 27 73 6 113 -13
26 -56 46 -70 33z m25 -32 c23 -12 33 -52 20 -84 -7 -20 -17 -26 -39 -26 -17
0 -31 6 -35 16 -11 29 -6 72 10 88 18 19 20 19 44 6z"/>
<path d="M12050 4372 c0 -54 4 -72 18 -85 22 -20 63 -22 80 -5 9 9 12 9 12 0
0 -7 7 -12 15 -12 12 0 15 16 15 85 0 69 -3 85 -15 85 -12 0 -15 -13 -15 -58
0 -62 -11 -82 -46 -82 -27 0 -34 17 -34 86 0 41 -4 54 -15 54 -12 0 -15 -14
-15 -68z"/>
<path d="M14360 4425 c0 -10 10 -15 30 -15 30 0 30 -1 30 -55 0 -54 0 -55 -30
-55 -20 0 -30 -5 -30 -15 0 -12 14 -15 70 -15 56 0 70 3 70 15 0 9 -9 15 -25
15 -24 0 -25 2 -25 70 l0 70 -45 0 c-33 0 -45 -4 -45 -15z"/>
<path d="M5947 4413 c-4 -3 -7 -37 -7 -75 l0 -68 -80 0 -80 0 0 -45 0 -45 79
0 79 0 3 -198 c4 -188 5 -200 29 -247 35 -67 89 -95 179 -94 36 0 86 6 111 12
44 12 45 13 43 51 -2 22 -5 41 -7 43 -2 2 -30 -1 -63 -6 -66 -10 -127 -1 -150
22 -25 24 -33 86 -33 255 l0 162 120 0 120 0 0 45 0 45 -120 0 -120 0 0 75 0
75 -48 0 c-27 0 -52 -3 -55 -7z"/>
<path d="M6679 4266 c-134 -48 -199 -152 -199 -317 0 -106 26 -173 89 -232 62
-58 135 -82 231 -75 72 5 149 39 191 84 25 26 21 46 -15 69 -24 16 -27 16 -63
-13 -87 -68 -187 -67 -262 1 -28 26 -60 92 -61 125 l0 22 216 0 217 0 -5 83
c-7 134 -66 220 -174 253 -58 17 -117 17 -165 0z m160 -103 c38 -29 61 -65 68
-106 l6 -37 -162 0 -162 0 6 23 c4 12 18 42 32 65 44 77 147 103 212 55z"/>
<path d="M7340 4264 c-83 -30 -140 -92 -140 -153 0 -19 6 -21 50 -21 44 0 52
3 60 24 12 32 55 64 96 72 88 16 162 -30 171 -107 l5 -46 -108 -6 c-60 -3
-130 -13 -156 -22 -137 -48 -178 -207 -79 -306 73 -73 208 -80 305 -14 l37 25
6 -30 c5 -29 7 -30 65 -30 58 0 60 1 53 23 -4 12 -11 121 -14 242 -6 235 -10
254 -63 301 -42 39 -89 56 -167 60 -54 3 -89 0 -121 -12z m240 -377 c0 -58 -2
-65 -32 -93 -44 -40 -79 -54 -138 -54 -82 0 -133 61 -108 131 18 52 81 76 206
78 l72 1 0 -63z"/>
<path d="M8010 4269 c-13 -6 -32 -17 -41 -25 -16 -14 -18 -13 -24 5 -5 17 -15
21 -51 21 l-44 0 0 -310 0 -310 50 0 50 0 0 248 c0 279 1 282 72 282 66 0 68
-6 68 -283 l0 -247 55 0 55 0 0 248 c0 232 1 250 19 266 13 12 32 16 57 14 61
-5 64 -18 64 -290 l0 -238 50 0 50 0 0 260 c0 283 -5 313 -54 345 -55 36 -159
27 -190 -16 -12 -18 -14 -18 -26 -4 -34 41 -105 56 -160 34z"/>
<path d="M9451 4269 c-124 -36 -196 -148 -196 -309 0 -113 23 -179 85 -240 58
-59 126 -84 213 -78 73 5 122 26 173 76 55 54 77 111 82 219 6 126 -14 190
-83 259 -38 40 -63 56 -104 68 -60 18 -119 19 -170 5z m149 -101 c65 -33 100
-105 100 -204 0 -116 -36 -190 -107 -220 -68 -29 -146 -5 -190 59 -47 69 -54
207 -14 285 48 94 125 123 211 80z"/>
<path d="M10301 4265 c-24 -7 -60 -27 -81 -44 -21 -16 -40 -27 -44 -24 -3 4
-6 21 -6 40 0 33 0 33 -50 33 l-50 0 0 -310 0 -310 55 0 55 0 0 204 c0 194 1
205 23 237 12 19 42 44 67 57 40 21 55 23 126 18 l82 -5 6 31 c12 62 8 75 -25
82 -49 9 -110 6 -158 -9z"/>
<path d="M8520 4258 c-1 -7 28 -147 62 -311 l63 -298 44 3 45 3 51 208 c50
199 65 246 65 198 0 -21 70 -313 91 -378 10 -31 14 -33 55 -33 24 0 44 3 44 7
0 9 119 574 126 596 5 15 -2 17 -45 17 -44 0 -51 -3 -56 -22 -2 -13 -19 -106
-35 -208 -31 -182 -48 -253 -49 -202 -1 12 -24 115 -52 227 l-51 205 -37 0
-37 0 -55 -224 -55 -225 -40 222 -40 222 -47 3 c-33 2 -47 -1 -47 -10z"/>
<path d="M12127 3943 c-4 -3 -7 -17 -7 -30 0 -22 4 -23 60 -23 l60 0 0 -200 0
-200 -60 0 -60 0 0 -30 0 -30 155 0 155 0 0 30 0 30 -60 0 -60 0 0 230 0 230
-88 0 c-49 0 -92 -3 -95 -7z"/>
<path d="M14560 3691 l0 -261 35 0 35 0 0 134 c0 133 0 135 26 155 17 13 41
21 65 21 62 0 73 -27 78 -182 l3 -128 29 0 29 0 0 143 c0 124 -3 146 -20 175
-33 54 -116 70 -177 32 l-32 -19 -3 92 -3 92 -32 3 -33 3 0 -260z"/>
<path d="M13885 3916 c-26 -19 -16 -60 16 -64 31 -4 53 20 44 46 -7 25 -39 34
-60 18z"/>
<path d="M450 3845 l0 -35 70 0 70 0 0 -235 0 -235 -70 0 -70 0 0 -35 0 -35
181 0 180 0 -3 33 -3 32 -67 3 -68 3 -2 267 -3 267 -107 3 -108 3 0 -36z"/>
<path d="M2150 3775 c0 -102 -4 -117 -27 -94 -6 6 -28 15 -49 19 -149 34 -252
-127 -199 -307 18 -61 75 -117 128 -127 38 -7 112 8 122 24 9 15 25 12 25 -5
0 -10 11 -15 35 -15 l35 0 0 305 0 305 -35 0 -35 0 0 -105z m-50 -150 c43 -22
50 -43 50 -143 0 -75 -3 -94 -20 -115 -26 -32 -79 -44 -121 -26 -84 34 -93
215 -14 277 33 26 65 28 105 7z"/>
<path d="M3800 3575 l0 -305 35 0 35 0 0 153 c0 146 1 154 23 174 47 43 85 52
130 32 40 -18 47 -49 47 -209 l0 -150 41 0 41 0 -4 173 c-3 187 -9 207 -64
243 -41 27 -125 22 -174 -10 l-40 -26 0 115 0 115 -35 0 -35 0 0 -305z"/>
<path d="M14238 3838 l-3 -43 -47 -3 c-43 -3 -48 -5 -48 -28 0 -22 4 -24 50
-24 l50 0 0 -124 c0 -109 2 -126 21 -149 25 -33 82 -49 139 -39 39 6 45 11 48
35 l3 27 -53 -6 c-46 -5 -55 -3 -73 16 -17 19 -21 39 -23 131 l-4 109 71 0
c69 0 71 1 71 25 0 23 -3 24 -67 27 l-68 3 -3 43 c-3 39 -5 42 -32 42 -27 0
-29 -3 -32 -42z"/>
<path d="M4430 3835 c-17 -20 -5 -62 20 -70 44 -14 80 41 48 73 -17 17 -53 15
-68 -3z"/>
<path d="M11775 3785 c-38 -20 -65 -52 -65 -76 0 -29 53 -26 73 5 40 60 147
28 147 -43 0 -19 -6 -21 -65 -21 -131 0 -199 -76 -150 -169 26 -52 135 -73
191 -36 22 14 25 14 30 0 4 -9 19 -15 38 -15 l31 0 -3 137 c-4 147 -11 174
-54 206 -37 28 -132 34 -173 12z m155 -218 c0 -88 -150 -117 -158 -30 -4 44
26 63 100 63 l58 0 0 -33z"/>
<path d="M12583 3780 c-43 -26 -65 -71 -71 -146 -11 -145 77 -238 189 -200 24
8 45 13 47 11 9 -8 -9 -56 -28 -75 -27 -27 -93 -27 -132 1 -27 20 -31 20 -45
6 -23 -22 -9 -45 39 -67 80 -36 167 -18 212 43 19 26 21 45 24 233 l3 204 -30
0 c-16 0 -33 -4 -36 -10 -4 -6 -17 -4 -35 5 -40 21 -99 19 -137 -5z m144 -62
c20 -19 23 -31 23 -103 0 -91 -13 -120 -59 -130 -40 -8 -85 16 -101 55 -20 48
-9 144 20 175 30 32 84 34 117 3z"/>
<path d="M13002 3783 c-18 -9 -41 -28 -51 -42 -46 -65 -50 -180 -8 -243 64
-94 204 -97 269 -6 18 27 24 49 26 113 3 71 1 84 -20 115 -51 75 -139 101
-216 63z m137 -67 c71 -76 32 -236 -58 -236 -56 0 -101 60 -101 135 0 101 100
164 159 101z"/>
<path d="M13520 3793 c-8 -3 -25 -15 -38 -26 l-23 -21 -6 22 c-4 16 -13 22
-34 22 l-29 0 0 -180 0 -180 35 0 35 0 0 123 c0 159 10 172 130 179 43 3 45 5
48 36 l3 32 -53 -1 c-29 0 -60 -3 -68 -6z"/>
<path d="M15031 3791 c-7 -5 -31 -6 -52 -4 l-39 6 0 -182 0 -181 35 0 34 0 3
153 c3 150 3 152 26 155 47 7 52 -9 52 -164 l0 -144 30 0 30 0 0 144 c0 155 5
171 52 164 23 -3 23 -5 26 -155 l3 -153 34 0 35 0 0 133 c-1 147 -9 202 -37
222 -23 19 -73 19 -99 1 -17 -12 -22 -12 -39 0 -21 16 -73 18 -94 5z"/>
<path d="M15451 3781 c-63 -34 -79 -100 -34 -145 15 -15 50 -33 82 -41 81 -22
106 -37 109 -66 7 -63 -128 -65 -157 -3 -8 18 -19 24 -41 24 -33 0 -37 -13
-18 -55 24 -53 106 -82 188 -64 64 14 100 49 100 98 0 56 -22 78 -103 102 -88
26 -117 43 -117 69 0 25 29 40 75 40 28 0 44 -7 65 -30 48 -51 102 -30 66 26
-41 62 -143 83 -215 45z"/>
<path d="M13750 3765 c0 -23 4 -24 63 -27 l62 -3 3 -122 3 -122 -63 -3 c-60
-3 -63 -4 -63 -28 l0 -25 153 -3 152 -3 0 31 0 30 -60 0 -60 0 0 150 0 150
-95 0 c-94 0 -95 0 -95 -25z"/>
<path d="M1055 3701 c-131 -32 -194 -191 -130 -328 39 -85 124 -124 224 -104
54 11 121 52 121 74 0 7 -9 18 -20 25 -18 11 -25 10 -51 -9 -83 -59 -190 -22
-214 74 l-7 27 152 0 153 0 -6 60 c-9 107 -63 170 -157 183 -19 3 -48 2 -65
-2z m93 -77 c22 -15 52 -63 52 -84 0 -6 -40 -10 -109 -10 l-110 0 10 30 c24
67 105 100 157 64z"/>
<path d="M1520 3701 c-19 -4 -45 -13 -57 -19 -29 -16 -63 -61 -63 -83 0 -15 8
-19 40 -19 28 0 40 4 40 14 0 24 42 46 88 46 53 0 92 -33 92 -80 l0 -30 -66 0
c-127 0 -192 -40 -201 -123 -7 -63 16 -103 75 -129 42 -19 53 -20 101 -10 30
6 62 19 73 29 18 16 19 16 25 -5 4 -18 13 -22 42 -22 l37 0 -4 163 c-4 184
-14 219 -73 248 -42 21 -103 29 -149 20z m140 -260 c0 -56 -7 -69 -51 -91 -44
-23 -71 -25 -102 -9 -29 16 -37 28 -37 60 0 48 52 74 158 78 31 1 32 0 32 -38z"/>
<path d="M2495 3701 c-131 -32 -194 -191 -130 -328 39 -85 124 -124 224 -104
54 11 121 52 121 74 0 7 -9 18 -20 25 -18 11 -25 10 -51 -9 -83 -59 -190 -22
-214 74 l-7 27 152 0 153 0 -6 60 c-9 107 -63 170 -157 183 -19 3 -48 2 -65
-2z m93 -77 c22 -15 52 -63 52 -84 0 -6 -40 -10 -109 -10 l-110 0 10 30 c24
67 105 100 157 64z"/>
<path d="M3095 3705 c-5 -2 -22 -6 -37 -9 -14 -3 -40 -18 -57 -32 l-31 -26 0
31 c0 29 -3 31 -35 31 l-35 0 0 -215 0 -215 35 0 35 0 0 133 c0 115 3 136 20
165 27 44 81 66 141 59 51 -6 59 1 59 49 0 18 -5 24 -22 24 -13 0 -32 2 -43 5
-11 2 -24 2 -30 0z"/>
<path d="M3450 3701 c-51 -11 -79 -28 -100 -64 -50 -82 -4 -145 133 -180 75
-20 107 -41 107 -72 0 -33 -36 -55 -90 -55 -51 0 -87 20 -100 56 -8 19 -17 24
-45 24 -30 0 -35 -3 -35 -22 0 -70 77 -122 180 -122 110 0 170 45 170 127 0
65 -38 92 -181 131 -31 9 -62 23 -69 31 -29 35 15 85 76 85 35 0 81 -26 89
-50 5 -16 15 -20 46 -20 45 0 50 16 20 66 -31 51 -123 81 -201 65z"/>
<path d="M4900 3698 c-19 -5 -43 -17 -52 -25 -17 -15 -18 -14 -18 6 0 20 -5
22 -37 19 l-38 -3 -3 -292 -2 -293 40 0 40 0 0 95 0 96 33 -18 c45 -23 124
-22 167 3 21 12 44 39 60 69 35 68 36 187 2 257 -36 74 -114 108 -192 86z m95
-88 c48 -45 57 -165 18 -230 -32 -55 -102 -66 -152 -24 -31 26 -31 27 -31 123
0 103 11 133 54 152 31 13 86 3 111 -21z"/>
<path d="M4290 3665 l0 -35 70 0 70 0 0 -145 0 -145 -70 0 -70 0 0 -35 0 -35
181 0 180 0 -3 33 -3 32 -67 3 -68 3 0 179 0 180 -110 0 -110 0 0 -35z"/>
<path d="M6337 3474 c-9 -10 2 -24 19 -24 8 0 14 7 14 15 0 15 -21 21 -33 9z"/>
<path d="M5944 3422 c-24 -4 -61 -39 -51 -48 7 -7 22 -1 50 18 12 9 22 10 34
2 31 -19 25 -32 -19 -39 -54 -9 -68 -20 -68 -56 0 -36 23 -48 88 -47 l52 1 0
66 c0 36 -4 71 -8 78 -10 16 -52 30 -78 25z m56 -105 c0 -20 -22 -37 -47 -37
-27 0 -42 28 -22 41 22 13 69 11 69 -4z"/>
<path d="M6145 3422 c-2 -3 -18 -5 -35 -4 l-30 1 0 -115 c0 -92 3 -114 14
-114 9 0 16 12 18 33 3 30 5 32 39 29 30 -3 40 2 58 24 25 31 27 73 6 113 -13
26 -56 46 -70 33z m25 -32 c23 -12 33 -52 20 -84 -7 -20 -17 -26 -39 -26 -17
0 -31 6 -35 16 -11 29 -6 72 10 88 18 19 20 19 44 6z"/>
<path d="M6521 3421 c-13 -4 -30 -16 -37 -27 -19 -28 5 -61 51 -70 43 -8 54
-23 30 -41 -25 -17 -31 -17 -55 7 -23 23 -40 26 -40 7 0 -23 35 -47 69 -47 97
0 96 81 -2 104 -20 5 -27 12 -25 24 4 22 41 27 58 7 13 -15 40 -21 40 -7 -1
28 -51 52 -89 43z"/>
<path d="M6280 3405 c0 -10 10 -15 30 -15 30 0 30 -1 30 -55 0 -54 0 -55 -30
-55 -20 0 -30 -5 -30 -15 0 -12 14 -15 70 -15 56 0 70 3 70 15 0 9 -9 15 -25
15 -24 0 -25 2 -25 70 l0 70 -45 0 c-33 0 -45 -4 -45 -15z"/>
<path d="M9310 3280 l0 -60 -66 0 -65 0 3 -32 c3 -33 3 -33 66 -36 l62 -3 0
-152 c0 -167 13 -219 62 -251 35 -23 106 -30 172 -16 56 11 57 12 54 43 l-3
32 -62 -3 c-122 -7 -133 10 -133 207 l0 140 93 3 92 3 3 33 3 32 -95 0 -96 0
0 60 0 60 -45 0 -45 0 0 -60z"/>
<path d="M9865 3212 c-89 -42 -130 -127 -123 -255 7 -130 57 -201 161 -228 93
-23 206 21 240 94 27 56 23 67 -23 67 -33 0 -42 -4 -50 -24 -15 -40 -58 -66
-110 -66 -87 0 -130 58 -130 175 0 104 37 164 111 180 43 10 100 -21 122 -67
17 -34 22 -38 58 -38 33 0 39 3 39 20 0 37 -40 99 -80 126 -54 36 -157 44
-215 16z"/>
<path d="M10444 3216 c-18 -8 -35 -19 -38 -25 -11 -18 -26 -13 -26 9 0 17 -7
20 -40 20 l-40 0 0 -340 0 -340 45 0 45 0 0 117 c0 111 1 115 18 100 31 -28
115 -42 164 -28 57 17 111 75 128 137 17 59 17 163 1 222 -14 51 -64 110 -108
128 -41 18 -109 17 -149 0z m120 -87 c43 -34 59 -76 59 -155 0 -80 -27 -144
-70 -163 -43 -20 -99 -13 -132 15 l-31 26 0 123 0 123 31 26 c39 33 104 36
143 5z"/>
<path d="M11134 3187 c-2 -7 -3 -102 -2 -212 l3 -200 28 -3 27 -3 0 110 c0
106 1 110 26 130 31 25 61 26 89 5 18 -13 20 -29 23 -129 4 -114 4 -115 28
-115 l24 0 0 123 c0 141 -8 160 -71 177 -35 10 -47 8 -80 -8 l-39 -19 0 78 c0
78 0 79 -25 79 -14 0 -28 -6 -31 -13z"/>
<path d="M7877 3184 c-4 -4 -7 -22 -7 -41 l0 -33 85 0 85 0 0 -270 0 -269 -82
-3 -83 -3 -3 -37 -3 -38 211 0 211 0 -3 38 -3 37 -77 3 -78 3 -2 307 -3 307
-121 3 c-66 1 -123 -1 -127 -4z"/>
<path d="M7498 3149 c-21 -12 -24 -59 -6 -77 7 -7 24 -12 38 -12 34 0 50 17
50 52 0 40 -43 60 -82 37z"/>
<path d="M11540 3105 c0 -34 -1 -35 -40 -35 -33 0 -40 -3 -40 -20 0 -17 7 -20
40 -20 l40 0 0 -104 c0 -96 2 -105 25 -130 23 -25 31 -27 87 -24 55 3 63 5 63
23 0 16 -7 20 -35 21 -19 0 -43 1 -52 2 -24 3 -40 64 -36 142 l3 65 58 3 c48
3 57 6 57 22 0 16 -9 19 -57 22 -57 3 -58 3 -61 36 -3 26 -7 32 -28 32 -21 0
-24 -5 -24 -35z"/>
<path d="M11878 3108 c-3 -30 -6 -33 -40 -36 -29 -2 -38 -8 -38 -22 0 -14 9
-20 38 -22 l37 -3 5 -108 c5 -99 7 -111 29 -128 16 -13 39 -19 71 -19 64 0 79
7 73 31 -5 17 -11 19 -42 14 -64 -11 -76 8 -76 117 l0 93 58 3 c49 3 57 6 57
22 0 18 -7 20 -60 20 l-60 0 0 35 c0 30 -3 35 -24 35 -21 0 -25 -6 -28 -32z"/>
<path d="M5307 3083 c-4 -3 -7 -57 -7 -120 0 -62 -1 -113 -3 -113 -1 0 -20 9
-42 20 -69 35 -167 19 -217 -37 -38 -41 -59 -110 -59 -190 0 -122 30 -192 99
-235 52 -32 148 -32 191 0 37 27 41 27 41 2 0 -17 7 -20 40 -20 l40 0 0 350 0
350 -38 0 c-21 0 -42 -3 -45 -7z m-38 -299 l31 -26 0 -118 c0 -110 -2 -121
-23 -146 -33 -38 -110 -45 -150 -14 -44 35 -59 75 -59 155 0 79 15 120 58 154
39 31 104 28 143 -5z"/>
<path d="M12245 3073 c-11 -3 -26 -10 -34 -17 -11 -8 -15 -8 -18 2 -3 6 -16
12 -29 12 l-24 0 0 -205 0 -205 30 0 30 0 0 65 c0 62 1 65 19 55 11 -5 40 -10
64 -10 57 0 92 32 106 99 19 90 -8 173 -64 197 -35 14 -45 15 -80 7z m67 -73
c28 -29 30 -35 26 -87 -4 -46 -10 -61 -32 -80 -32 -27 -53 -29 -84 -7 -20 13
-22 24 -22 94 0 70 2 81 22 94 33 23 56 20 90 -14z"/>
<path d="M12563 3069 c-37 -11 -73 -52 -73 -84 0 -32 48 -70 106 -84 27 -7 54
-17 61 -23 19 -16 16 -46 -6 -58 -36 -19 -72 -11 -101 20 -27 28 -70 41 -70
20 0 -24 26 -63 51 -76 16 -8 53 -14 83 -14 44 0 60 5 85 26 62 52 32 120 -63
144 -66 17 -86 28 -86 49 0 44 68 54 106 16 28 -28 74 -34 74 -9 0 21 -54 74
-77 74 -10 0 -27 2 -38 4 -11 3 -34 0 -52 -5z"/>
<path d="M6316 2976 c-51 -19 -94 -63 -102 -103 l-6 -33 46 0 c31 0 46 4 46
13 0 8 10 23 23 34 68 62 187 21 187 -65 l0 -29 -94 -5 c-109 -6 -159 -26
-193 -77 -46 -68 -22 -170 49 -208 49 -26 142 -24 196 5 52 27 52 27 52 2 0
-17 7 -20 51 -20 45 0 50 2 43 18 -4 9 -10 99 -13 199 -7 201 -11 217 -80 257
-43 25 -153 31 -205 12z m194 -299 c0 -43 -5 -58 -22 -75 -75 -69 -198 -49
-198 34 0 38 26 71 62 78 13 3 32 7 43 9 11 3 41 5 68 6 l47 1 0 -53z"/>
<path d="M6865 2976 c-98 -45 -146 -187 -111 -327 21 -79 59 -128 120 -153 41
-18 53 -19 103 -8 31 6 65 20 76 29 20 18 20 17 15 -30 -12 -110 -126 -150
-219 -77 l-37 29 -23 -25 c-29 -31 -20 -49 40 -82 57 -33 147 -40 205 -18 54
21 101 71 115 123 6 22 11 145 11 291 l0 252 -39 0 c-31 0 -40 -4 -44 -21 l-6
-21 -30 23 c-38 28 -131 36 -176 15z m176 -95 c29 -29 29 -31 29 -143 0 -92
-4 -117 -18 -134 -55 -68 -159 -56 -198 23 -25 52 -25 179 0 220 31 47 57 63
109 63 40 0 53 -5 78 -29z"/>
<path d="M8535 2971 c-51 -23 -111 -89 -124 -138 -6 -21 -11 -70 -11 -109 0
-55 5 -81 25 -121 60 -120 225 -159 342 -80 57 38 63 58 28 81 -26 17 -28 17
-48 -2 -36 -32 -63 -42 -116 -42 -39 0 -56 6 -81 26 -35 30 -60 73 -60 104 0
19 5 20 171 20 l172 0 -5 70 c-4 54 -12 81 -34 117 -53 85 -164 117 -259 74z
m132 -68 c39 -18 73 -65 73 -100 0 -23 -2 -23 -126 -23 l-126 0 7 27 c10 41
44 84 79 99 41 17 51 17 93 -3z"/>
<path d="M7322 2943 l3 -38 83 -3 82 -3 0 -164 0 -164 -82 -3 -83 -3 -3 -37
-3 -38 211 0 211 0 -3 38 -3 37 -77 3 -78 3 0 204 0 205 -131 0 -130 0 3 -37z"/>
<path d="M5684 2876 c-18 -8 -35 -19 -38 -25 -11 -18 -26 -13 -26 9 0 17 -7
20 -40 20 l-40 0 0 -340 0 -340 45 0 45 0 0 117 c0 111 1 115 18 100 31 -28
115 -42 164 -28 57 17 111 75 128 137 17 59 17 163 1 222 -14 51 -64 110 -108
128 -41 18 -109 17 -149 0z m120 -87 c43 -34 59 -76 59 -155 0 -80 -27 -144
-70 -163 -43 -20 -99 -13 -132 15 l-31 26 0 123 0 123 31 26 c39 33 104 36
143 5z"/>
<path d="M4442 2693 c3 -161 6 -194 22 -227 44 -88 161 -112 250 -51 45 31 46
31 46 0 0 -22 4 -25 40 -25 l40 0 0 245 0 245 -45 0 -45 0 0 -178 0 -178 -30
-29 c-23 -22 -41 -29 -82 -33 -47 -3 -56 -1 -78 23 -25 26 -25 30 -28 211 l-3
184 -45 0 -46 0 4 -187z"/>
<path d="M11150 1900 l0 -530 65 0 65 0 0 128 0 128 45 44 c44 43 46 44 59 25
8 -11 68 -87 133 -170 l119 -150 82 -3 c45 -2 82 0 82 4 0 4 -69 93 -154 199
-85 106 -160 202 -167 213 -13 20 -4 31 129 165 78 79 142 149 142 155 0 8
-24 12 -73 12 l-73 0 -162 -163 -162 -163 0 318 0 318 -65 0 -65 0 0 -530z"/>
<path d="M12266 2364 c-40 -39 -28 -106 21 -125 60 -23 124 26 110 83 -10 40
-34 58 -77 58 -22 0 -45 -7 -54 -16z"/>
<path d="M7960 2205 l0 -84 -97 -3 -98 -3 0 -50 0 -50 97 -3 97 -3 3 -247 c3
-232 4 -249 25 -288 27 -50 70 -88 119 -104 42 -14 199 -8 257 10 38 11 39 12
32 53 -4 23 -10 45 -14 50 -4 4 -34 2 -67 -4 -72 -14 -150 -6 -177 18 -42 37
-47 71 -47 298 l0 215 140 0 140 0 0 55 0 55 -140 0 -140 0 0 85 0 85 -65 0
-65 0 0 -85z"/>
<path d="M6393 2120 c-40 -9 -112 -51 -138 -80 l-20 -22 -5 48 -5 49 -57 3
-58 3 0 -376 0 -375 65 0 65 0 0 267 0 266 26 34 c54 70 181 100 252 58 64
-38 67 -52 70 -352 l3 -273 65 0 65 0 -3 288 c-3 271 -4 290 -25 335 -50 108
-169 159 -300 127z"/>
<path d="M7187 2120 c-174 -44 -279 -212 -265 -423 12 -162 85 -264 228 -318
45 -17 72 -20 146 -17 106 4 175 32 239 98 l39 40 -34 30 c-19 16 -38 29 -42
30 -4 0 -28 -15 -52 -34 -60 -46 -105 -59 -182 -54 -50 3 -72 10 -106 34 -43
30 -89 106 -102 167 l-6 27 266 0 267 0 -5 88 c-13 206 -113 322 -289 336 -35
3 -81 1 -102 -4z m153 -122 c25 -13 55 -38 67 -57 26 -38 47 -106 38 -121 -4
-6 -83 -10 -196 -10 -215 0 -207 -4 -165 85 52 112 156 153 256 103z"/>
<path d="M9693 2120 c-92 -19 -184 -95 -224 -184 -73 -166 -34 -400 85 -502
116 -99 316 -99 432 0 122 104 159 347 79 512 -30 61 -99 128 -159 154 -50 23
-155 32 -213 20z m152 -119 c83 -38 129 -131 129 -261 -1 -100 -25 -172 -76
-221 -44 -43 -82 -54 -158 -47 -90 9 -148 77 -171 203 -19 102 9 224 64 284
30 32 94 61 137 61 19 0 53 -9 75 -19z"/>
<path d="M10692 2112 c-28 -10 -74 -38 -102 -61 l-49 -41 -3 52 -3 53 -60 0
-60 0 -3 -372 -2 -373 65 0 65 0 0 230 c0 215 1 234 21 273 46 92 98 121 214
121 44 0 92 -3 107 -7 26 -7 26 -6 35 56 10 76 9 77 -95 83 -59 4 -90 0 -130
-14z"/>
<path d="M13113 2120 c-40 -9 -112 -51 -138 -80 l-20 -22 -5 48 -5 49 -57 3
-58 3 0 -376 0 -375 65 0 65 0 0 267 0 266 26 34 c54 70 181 100 252 58 64
-38 67 -52 70 -352 l3 -273 65 0 65 0 -3 288 c-3 271 -4 290 -25 335 -50 108
-169 159 -300 127z"/>
<path d="M13873 2121 c-48 -13 -120 -58 -147 -94 -114 -149 -107 -442 13 -579
90 -102 258 -118 374 -36 l27 19 0 -48 c-1 -86 -48 -158 -119 -182 -80 -26
-171 -5 -242 57 l-35 30 -34 -41 -34 -40 46 -42 c97 -88 270 -110 392 -51 68
33 108 78 135 151 20 53 21 74 21 456 l0 400 -57 -3 c-57 -3 -58 -3 -61 -35
-4 -36 -13 -41 -33 -17 -37 45 -169 75 -246 55z m174 -123 c18 -5 46 -26 63
-46 l30 -37 0 -172 0 -173 -35 -38 c-55 -61 -135 -77 -211 -43 -76 34 -115
118 -115 247 0 94 12 147 43 194 55 80 121 100 225 68z"/>
<path d="M8546 2112 c-2 -4 30 -172 73 -372 l77 -365 54 0 54 0 57 230 c31
127 60 248 65 270 6 32 8 35 11 15 2 -14 31 -136 65 -272 l62 -248 52 0 53 0
16 73 c71 322 141 663 138 670 -2 4 -28 7 -58 7 -53 0 -54 -1 -60 -32 -4 -18
-26 -143 -49 -278 -24 -135 -46 -238 -48 -230 -3 8 -34 132 -69 275 l-64 260
-42 3 c-41 3 -42 2 -52 -35 -23 -89 -110 -441 -117 -478 -6 -33 -8 -36 -12
-15 -20 124 -92 512 -97 520 -7 12 -102 14 -109 2z"/>
<path d="M12010 2060 l0 -60 125 0 125 0 -2 -257 -3 -258 -122 -3 -123 -3 0
-54 0 -55 310 0 310 0 0 55 0 55 -120 0 -120 0 -2 318 -3 317 -187 3 -188 2 0
-60z"/>
<path d="M5380 1906 c0 -10 13 -16 38 -18 l37 -3 3 -127 3 -128 -41 0 c-33 0
-40 -3 -40 -20 0 -19 7 -20 100 -20 93 0 100 1 100 20 0 17 -7 20 -40 20 l-40
0 0 145 0 145 -60 0 c-46 0 -60 -3 -60 -14z"/>
<path d="M5160 1856 c0 -19 -6 -25 -27 -28 -40 -4 -44 -38 -5 -38 l29 0 5 -80
c6 -100 20 -120 89 -120 26 0 50 4 53 8 10 16 -10 31 -40 30 -49 -1 -54 7 -54
88 l0 74 45 0 c38 0 45 3 45 20 0 17 -7 20 -45 20 -41 0 -45 2 -45 25 0 20 -5
25 -25 25 -20 0 -25 -5 -25 -24z"/>
<path d="M5676 1809 c-17 -14 -26 -30 -26 -49 0 -34 24 -53 88 -70 65 -17 70
-51 10 -65 -21 -6 -32 -1 -51 19 -29 31 -57 34 -57 7 0 -33 47 -61 100 -61 58
0 93 24 93 63 0 39 -18 55 -79 73 -60 17 -71 28 -54 49 18 22 67 19 82 -5 16
-26 48 -26 48 -1 0 29 -47 61 -90 61 -23 0 -48 -8 -64 -21z"/>
<path d="M3617 1144 c-4 -4 -7 -22 -7 -41 l0 -33 85 0 85 0 0 -270 0 -269 -82
-3 -83 -3 -3 -37 -3 -38 211 0 211 0 -3 38 -3 37 -77 3 -78 3 -2 307 -3 307
-121 3 c-66 1 -123 -1 -127 -4z"/>
<path d="M5827 1144 c-4 -4 -7 -22 -7 -41 l0 -33 85 0 85 0 0 -270 0 -269 -82
-3 -83 -3 -3 -37 -3 -38 211 0 211 0 -3 38 -3 37 -77 3 -78 3 -2 307 -3 307
-121 3 c-66 1 -123 -1 -127 -4z"/>
<path d="M8037 1143 c-4 -3 -7 -21 -7 -39 l0 -33 83 -3 82 -3 3 -267 2 -268
-85 0 -85 0 0 -40 0 -40 205 0 205 0 0 40 0 40 -80 0 -80 0 0 310 0 310 -118
0 c-65 0 -122 -3 -125 -7z"/>
<path d="M9460 1046 l0 -74 -42 16 c-39 13 -47 13 -80 -1 -48 -20 -78 -77 -78
-147 0 -56 28 -123 59 -140 25 -13 97 -13 122 0 13 7 19 7 19 0 0 -5 11 -10
25 -10 l25 0 0 215 0 215 -25 0 c-24 0 -25 -2 -25 -74z m-26 -117 c23 -18 26
-27 26 -88 0 -55 -4 -71 -20 -86 -25 -22 -75 -24 -96 -3 -39 38 -34 147 7 181
28 22 50 22 83 -4z"/>
<path d="M10387 1094 c-4 -4 -7 -18 -7 -31 0 -19 5 -23 31 -23 27 0 30 3 27
28 -3 26 -34 43 -51 26z"/>
<path d="M9695 993 c-122 -31 -141 -245 -25 -293 63 -26 180 3 180 45 0 20
-31 27 -49 11 -26 -22 -61 -29 -91 -16 -28 12 -60 49 -60 70 0 6 40 10 106 10
l107 0 -7 52 c-9 66 -37 104 -84 118 -39 10 -45 11 -77 3z m80 -68 c45 -44 34
-55 -49 -55 -69 0 -74 1 -69 20 7 26 50 60 75 60 10 0 30 -11 43 -25z"/>
<path d="M10023 989 c-37 -11 -73 -52 -73 -84 0 -32 48 -70 106 -84 27 -7 54
-17 61 -23 19 -16 16 -46 -6 -58 -36 -19 -72 -11 -101 20 -27 28 -70 41 -70
20 0 -24 26 -63 51 -76 16 -8 53 -14 83 -14 44 0 60 5 85 26 62 52 32 120 -63
144 -66 17 -86 28 -86 49 0 44 68 54 106 16 28 -28 74 -34 74 -9 0 21 -54 74
-77 74 -10 0 -27 2 -38 4 -11 3 -34 0 -52 -5z"/>
<path d="M10672 985 c-83 -36 -96 -204 -21 -274 25 -23 95 -29 130 -11 29 16
25 -25 -6 -55 -29 -30 -59 -32 -102 -6 -26 16 -34 17 -42 7 -40 -48 95 -93
165 -56 52 28 58 52 62 233 l4 167 -31 0 c-17 0 -31 -4 -31 -9 0 -6 -16 -3
-35 5 -42 17 -51 17 -93 -1z m91 -46 c33 -18 37 -28 37 -100 0 -70 -11 -89
-58 -104 -17 -5 -29 1 -52 24 -25 24 -30 38 -30 76 0 88 46 134 103 104z"/>
<path d="M11038 982 c-30 -16 -38 -17 -38 -6 0 8 -10 14 -25 14 l-25 0 0 -150
0 -150 25 0 25 0 0 104 c0 117 11 141 66 152 24 5 37 1 53 -15 19 -19 21 -33
21 -131 l0 -110 30 0 30 0 0 98 c0 53 -5 114 -11 135 -18 65 -87 92 -151 59z"/>
<path d="M10280 965 c0 -23 3 -25 50 -25 l50 0 0 -100 0 -100 -50 0 c-47 0
-50 -2 -50 -25 l0 -25 130 0 130 0 0 25 c0 23 -3 25 -50 25 l-50 0 0 125 0
125 -80 0 c-79 0 -80 0 -80 -25z"/>
<path d="M4265 931 c-93 -42 -142 -137 -133 -260 6 -78 32 -135 82 -179 106
-93 274 -55 336 75 30 61 32 186 6 248 -49 114 -181 167 -291 116z m155 -80
c46 -33 65 -79 65 -156 0 -77 -19 -122 -66 -158 -33 -24 -98 -25 -133 -2 -60
39 -85 167 -50 255 33 81 117 109 184 61z"/>
<path d="M6469 922 c-164 -86 -168 -369 -7 -454 49 -26 149 -30 209 -10 33 11
99 66 99 81 0 3 -12 14 -26 25 -25 18 -26 18 -47 -2 -12 -11 -32 -25 -44 -31
-31 -16 -109 -14 -143 4 -30 16 -64 64 -74 108 l-6 27 176 0 177 0 -6 65 c-17
177 -160 264 -308 187z m166 -69 c24 -19 55 -73 55 -98 0 -12 -22 -15 -125
-15 -115 0 -125 1 -125 19 0 29 42 84 80 104 39 20 78 17 115 -10z"/>
<path d="M7590 934 c-83 -36 -131 -112 -138 -219 -6 -101 10 -151 68 -206 35
-35 60 -49 99 -59 87 -21 185 5 239 63 l23 25 -26 21 -27 20 -35 -26 c-48 -36
-134 -43 -180 -14 -38 24 -60 56 -69 99 l-6 32 171 0 171 0 0 54 c0 137 -81
226 -205 225 -27 0 -66 -7 -85 -15z m125 -68 c37 -16 75 -68 75 -103 0 -23 -2
-23 -126 -23 l-125 0 6 23 c14 44 49 89 79 103 40 17 49 17 91 0z"/>
<path d="M4650 936 c0 -3 23 -111 50 -240 28 -130 50 -238 50 -241 0 -4 17 -5
37 -3 l37 3 42 169 41 168 43 -171 42 -171 37 0 36 0 49 232 c27 128 51 238
53 245 4 9 -7 13 -35 13 -48 0 -42 14 -77 -190 -15 -85 -28 -156 -29 -157 -1
-1 -21 77 -45 173 l-43 175 -31 -3 -31 -3 -42 -170 -42 -170 -11 55 c-6 30
-20 108 -32 173 l-21 117 -39 0 c-22 0 -39 -2 -39 -4z"/>
<path d="M6880 937 c0 -2 44 -111 98 -243 l99 -239 35 -3 35 -3 93 228 c51
125 95 236 98 246 4 14 -3 17 -40 17 l-44 0 -68 -185 c-38 -102 -71 -184 -73
-181 -3 3 -36 85 -73 183 l-68 178 -46 3 c-25 2 -46 1 -46 -1z"/>
<path d="M5280 740 l0 -40 173 2 172 3 0 35 0 35 -172 3 -173 2 0 -40z"/>
</g>
</svg>
